<?xml version="1.0" standalone="no"?>
<!DOCTYPE svg PUBLIC "-//W3C//DTD SVG 20010904//EN"
 "http://www.w3.org/TR/2001/REC-SVG-20010904/DTD/svg10.dtd">
<svg version="1.0" xmlns="http://www.w3.org/2000/svg"
 width="600.000000pt" height="600.000000pt" viewBox="0 0 600.000000 600.000000"
 preserveAspectRatio="xMidYMid meet">

<g transform="translate(0.000000,600.000000) scale(0.100000,-0.100000)"
fill="#000000" stroke="none">
<path d="M2660 4810 c-148 -39 -212 -60 -246 -79 -11 -6 -45 -20 -77 -32 -32
-11 -90 -43 -130 -70 -99 -68 -237 -202 -237 -231 0 -5 -20 -17 -44 -28 -25
-10 -83 -47 -130 -82 -85 -63 -121 -108 -183 -232 -41 -81 -70 -409 -41 -471
l12 -27 102 7 102 7 6 -98 c7 -115 16 -149 36 -149 16 0 16 6 9 162 -2 45 -1
84 2 87 3 4 36 10 72 14 37 5 70 12 74 16 4 4 9 37 11 74 2 37 8 72 14 77 6 6
8 -3 6 -25 -3 -48 10 -110 25 -111 67 -5 433 8 458 16 11 4 19 16 19 28 2 98
10 186 19 207 8 20 9 13 8 -40 -1 -61 21 -145 46 -177 7 -9 29 -11 76 -7 59 5
196 -10 341 -36 92 -17 85 -20 86 30 1 78 16 200 25 206 10 6 14 -11 28 -111
5 -38 16 -87 25 -107 14 -32 22 -38 73 -52 32 -9 103 -39 158 -66 55 -28 107
-50 115 -50 12 0 15 20 17 116 1 64 4 119 8 122 11 11 45 -39 92 -138 44 -91
84 -219 97 -305 3 -22 10 -65 15 -95 9 -55 9 -218 0 -236 -3 -5 -6 -37 -8 -71
-2 -52 1 -63 19 -76 16 -11 31 -13 63 -5 47 10 112 3 145 -18 43 -28 20 -142
-40 -201 -34 -33 -43 -37 -94 -37 -40 -1 -59 -5 -64 -16 -4 -8 -13 -28 -21
-45 -24 -50 -179 -117 -303 -131 -23 -2 -72 -9 -111 -14 -38 -6 -86 -11 -105
-13 -28 -2 -36 -7 -38 -25 -3 -22 -2 -23 60 -18 35 2 71 7 80 11 9 4 28 0 42
-7 l26 -13 -23 -33 c-12 -17 -26 -32 -31 -32 -5 0 -32 -19 -60 -43 -28 -24
-79 -61 -114 -82 -59 -36 -68 -39 -140 -38 -119 0 -230 47 -280 116 -18 27
-19 33 -7 40 8 4 29 21 47 37 23 21 43 30 68 30 42 0 64 12 58 31 -3 10 -25
14 -74 15 -38 1 -98 6 -134 12 -36 6 -90 14 -120 17 -30 3 -82 11 -115 19 -33
8 -82 19 -108 25 -51 12 -93 2 -66 -15 8 -5 52 -18 99 -29 47 -12 83 -25 81
-31 -3 -5 -23 -15 -45 -23 -56 -19 -141 -8 -229 29 -39 16 -79 30 -88 30 -32
0 -29 -28 6 -63 40 -40 38 -42 -53 -53 -51 -5 -67 -3 -108 17 -26 13 -61 41
-77 62 -33 41 -62 48 -72 17 -6 -20 10 -83 28 -107 14 -20 -24 -16 -48 5 -66
56 -96 145 -96 284 0 63 5 86 26 128 l26 51 31 -43 c83 -116 201 -195 363
-243 70 -20 97 -14 70 15 -9 10 -20 19 -24 18 -12 -3 -68 14 -142 43 -113 45
-217 140 -282 260 -36 68 -33 117 18 228 19 43 35 85 35 94 0 8 6 20 14 26 8
7 22 45 30 85 14 59 14 79 5 100 -20 44 -40 29 -44 -33 -6 -81 -14 -105 -82
-251 -41 -89 -54 -148 -42 -195 6 -22 15 -45 20 -51 6 -7 3 -20 -9 -35 -18
-25 -32 -53 -52 -105 -24 -66 8 -324 41 -324 5 0 9 -6 9 -12 0 -22 64 -84 99
-96 19 -7 49 -12 67 -12 39 0 43 14 18 62 l-16 31 31 -22 c44 -31 116 -51 151
-41 16 4 31 6 34 3 12 -12 111 21 132 44 19 21 26 23 44 13 11 -6 59 -12 105
-12 66 -1 89 2 103 15 10 9 24 17 30 17 6 0 17 9 25 20 8 11 16 18 18 16 2 -2
36 -7 76 -10 40 -4 82 -10 94 -14 23 -9 19 -13 -130 -105 -51 -32 -62 -45 -92
-101 -12 -22 -34 -53 -50 -70 -39 -41 -152 -229 -178 -295 -25 -61 -26 -87 -7
-132 11 -27 12 -45 3 -88 -10 -51 -9 -54 14 -72 35 -27 39 -24 39 31 0 28 4
50 9 50 4 0 24 -13 44 -28 20 -16 57 -37 84 -47 26 -10 53 -22 59 -26 6 -5
188 -9 405 -8 217 0 445 -3 507 -7 97 -6 112 -5 112 9 0 17 20 27 56 27 14 0
46 9 72 19 26 10 115 43 197 71 83 29 158 59 167 67 9 8 21 12 26 9 13 -8 26
-97 24 -166 -2 -62 8 -86 32 -77 17 7 17 49 0 219 -5 50 -3 58 15 67 11 7 27
24 35 39 40 79 -21 180 -246 414 l-103 107 40 0 c52 0 156 24 186 44 13 9 41
23 61 31 34 15 37 15 31 0 -9 -23 15 -34 77 -34 50 0 134 27 150 48 11 15 90
52 90 43 0 -6 8 -15 18 -20 36 -19 165 60 188 115 38 92 24 267 -36 444 -51
148 -61 173 -95 246 -52 109 -56 122 -65 224 -5 52 -14 154 -20 225 -6 72 -20
166 -30 210 -10 44 -22 100 -25 125 -13 86 -156 383 -216 449 -22 23 -39 47
-39 53 0 5 -41 51 -92 100 -76 76 -107 98 -192 140 -95 47 -104 49 -161 45
-54 -5 -62 -3 -95 22 -89 71 -283 144 -440 167 -52 7 -151 13 -220 13 -111 -1
-141 -5 -270 -39z m470 -16 c30 -4 62 -9 70 -10 111 -17 291 -93 372 -156 49
-39 52 -40 88 -28 45 15 73 7 189 -50 56 -28 98 -59 159 -119 45 -44 82 -85
82 -90 0 -5 18 -29 40 -53 39 -43 152 -256 189 -358 11 -30 23 -77 26 -105 4
-27 13 -75 20 -105 13 -54 44 -307 51 -425 5 -77 30 -169 59 -220 13 -22 38
-78 55 -125 17 -47 36 -94 41 -105 16 -36 48 -169 57 -238 16 -121 1 -198 -44
-238 -27 -23 -68 -44 -60 -30 11 17 -3 51 -22 51 -8 0 -26 -9 -38 -21 -54 -51
-234 -143 -249 -127 -2 2 9 30 25 63 21 43 26 63 18 72 -17 21 -32 15 -73 -28
-22 -23 -71 -56 -109 -75 -38 -18 -74 -38 -80 -42 -30 -24 -216 -41 -273 -26
l-23 6 20 28 c37 53 19 69 -49 45 -46 -16 -89 -19 -116 -8 -12 4 7 15 61 33
115 39 137 53 163 103 20 38 28 45 72 56 72 19 143 78 163 137 21 61 20 127
-1 171 -24 52 -64 62 -171 45 l-53 -9 6 146 c6 154 -7 288 -41 401 -9 30 -18
66 -20 80 -3 14 -32 80 -65 147 -44 91 -71 131 -101 158 -23 19 -45 35 -50 35
-13 0 -18 -39 -21 -157 -1 -62 -3 -113 -5 -113 -1 0 -35 18 -76 40 -40 22
-103 49 -138 60 -74 23 -70 15 -94 160 -7 47 -14 119 -14 161 0 83 -13 109
-42 86 -21 -17 -70 -234 -70 -313 0 -57 -5 -59 -124 -39 -60 10 -155 19 -212
19 l-102 1 -16 43 c-14 35 -16 65 -11 175 4 72 10 156 13 185 l7 54 -28 -4
c-27 -3 -30 -8 -50 -93 -45 -186 -50 -220 -55 -363 0 -9 -16 -13 -52 -12 -29
1 -123 -2 -209 -5 l-156 -7 -5 48 c-2 27 -2 78 1 114 9 104 3 150 -19 150 -32
0 -74 -157 -89 -331 -1 -6 -27 -9 -191 -24 -30 -3 -76 -7 -101 -10 -42 -5 -47
-3 -53 17 -9 34 2 222 17 308 23 126 112 276 187 315 14 7 38 25 55 39 16 14
50 33 75 42 36 13 53 28 85 76 22 32 55 68 73 79 17 12 32 24 32 29 0 14 139
111 189 132 25 11 60 26 76 33 98 44 140 59 230 81 55 14 109 27 120 30 77 20
268 24 385 8z m350 -2559 c0 -3 -19 -38 -41 -78 -23 -40 -55 -97 -71 -127
-133 -244 -159 -284 -200 -301 -51 -21 -227 -16 -305 10 -34 11 -78 23 -96 26
-19 4 -45 16 -60 28 -23 20 -29 38 -51 172 l-25 150 25 23 25 22 44 -54 c49
-60 100 -88 211 -116 61 -16 83 -17 143 -8 39 6 71 14 71 19 0 5 7 9 16 9 23
0 170 110 234 174 47 48 80 69 80 51z m282 -93 c32 -21 244 -242 298 -310 49
-62 73 -110 72 -145 -1 -28 -26 -67 -43 -67 -5 0 -31 -13 -58 -30 -28 -16 -85
-41 -128 -56 -43 -14 -87 -30 -98 -34 -54 -22 -204 -69 -235 -74 -47 -8 -61 5
-142 140 -64 106 -67 114 -57 148 9 31 75 147 129 226 10 14 44 65 75 113 32
49 67 93 79 97 35 14 79 11 108 -8z m-1244 -209 c5 -16 16 -59 25 -98 l15 -70
-29 -43 c-16 -24 -29 -47 -29 -53 0 -5 -4 -9 -9 -9 -12 0 -51 -94 -51 -123 0
-13 5 -38 11 -56 6 -18 9 -34 6 -37 -5 -6 -47 13 -57 25 -3 3 -22 19 -43 35
-21 15 -46 43 -54 62 -14 29 -15 39 -3 76 8 24 25 63 39 88 34 62 151 230 161
230 4 0 12 -12 18 -27z"/>
<path d="M2075 3377 c-10 -8 -15 -19 -11 -25 4 -7 7 -54 7 -106 0 -77 3 -96
17 -110 16 -14 20 -14 40 0 20 14 22 23 22 125 0 108 0 110 -26 119 -31 12
-27 13 -49 -3z"/>
<path d="M2841 3362 c-4 -9 -7 -62 -5 -116 3 -108 14 -134 53 -121 18 5 21 14
22 68 2 124 1 145 -9 164 -13 24 -49 27 -61 5z"/>
<path d="M3134 3045 c-8 -20 13 -45 32 -38 8 3 14 16 14 29 0 17 -6 24 -20 24
-11 0 -23 -7 -26 -15z"/>
</g>
</svg>
