<?xml version="1.0" encoding="UTF-8" standalone="no"?><!-- Generator: Gravit.io --><svg xmlns="http://www.w3.org/2000/svg" xmlns:xlink="http://www.w3.org/1999/xlink" style="isolation:isolate" viewBox="0 0 50 50" width="50pt" height="50pt"><defs><clipPath id="_clipPath_1HHa1uLk8Xkrm1efS2uVovYwaa9XMxQP"><rect width="50" height="50"/></clipPath></defs><g clip-path="url(#_clipPath_1HHa1uLk8Xkrm1efS2uVovYwaa9XMxQP)"><path d=" M 21 22 C 21 16.757 16.967 12.5 12 12.5 C 7.033 12.5 3 16.757 3 22 L 12 22 L 21 22 Z " fill="rgb(23,43,68)"/><path d=" M 16 22 C 16 19.792 14.208 18 12 18 C 9.792 18 8 19.792 8 22 L 12 22 L 16 22 Z " fill="rgb(23,43,68)"/><rect x="3" y="21.432" width="5" height="15.568" transform="matrix(1,0,0,1,0,0)" fill="rgb(23,43,68)"/><rect x="16" y="21.179" width="5" height="15.821" transform="matrix(1,0,0,1,0,0)" fill="rgb(23,43,68)"/><circle vector-effect="non-scaling-stroke" cx="29" cy="32" r="5" fill="rgb(23,43,68)"/><circle vector-effect="non-scaling-stroke" cx="42" cy="32" r="5" fill="rgb(23,43,68)"/><rect x="30" y="23" width="4" height="14" transform="matrix(1,0,0,1,0,0)" fill="rgb(23,43,68)"/><rect x="43" y="23" width="4" height="14" transform="matrix(1,0,0,1,0,0)" fill="rgb(23,43,68)"/><rect x="7" y="24" width="10" height="7" transform="matrix(1,0,0,1,0,0)" fill="rgb(23,43,68)"/><rect x="7" y="18" width="10" height="8" transform="matrix(1,0,0,1,0,0)" fill="rgb(23,43,68)"/></g></svg>