<?xml version="1.0" encoding="UTF-8" standalone="no"?><!-- Generator: Gravit.io --><svg xmlns="http://www.w3.org/2000/svg" xmlns:xlink="http://www.w3.org/1999/xlink" style="isolation:isolate" viewBox="0 0 50 50" width="50pt" height="50pt"><defs><clipPath id="_clipPath_3C1WrxoxsS8OxD5nsNQQFvJhBNu6pEkL"><rect width="50" height="50"/></clipPath></defs><g clip-path="url(#_clipPath_3C1WrxoxsS8OxD5nsNQQFvJhBNu6pEkL)"><circle vector-effect="non-scaling-stroke" cx="10" cy="18" r="8" fill="rgb(52,79,44)"/><path d="M 31.205 6.67 L 43.4 8.972 C 44.645 9.207 45.465 10.408 45.23 11.652 L 42.557 25.811 C 42.322 27.055 41.12 27.875 39.875 27.64 L 27.68 25.338 C 26.435 25.103 25.615 23.902 25.85 22.658 L 28.523 8.499 C 28.758 7.255 29.96 6.435 31.205 6.67 Z" style="stroke:none;fill:#5F6C69;stroke-miterlimit:10;"/><path d=" M 39.6 42.844 L 31.668 45.672 L 23.736 48.501 C 22.964 48.776 21.914 48.485 21.394 47.851 L 16.168 41.477 L 10.942 35.103 C 10.422 34.469 10.379 33.407 10.846 32.732 L 15.519 25.977 L 20.193 19.222 C 20.66 18.548 21.682 18.174 22.473 18.388 L 30.618 20.593 L 38.763 22.797 C 39.555 23.011 40.226 23.851 40.26 24.67 L 40.599 32.765 L 40.938 40.86 C 40.972 41.679 40.373 42.568 39.6 42.844 Z " fill="rgb(80,121,68)"/></g></svg>