<?xml version="1.0" encoding="UTF-8" standalone="no"?><!-- Generator: Gravit.io --><svg xmlns="http://www.w3.org/2000/svg" xmlns:xlink="http://www.w3.org/1999/xlink" style="isolation:isolate" viewBox="0 0 50 50" width="50pt" height="50pt"><defs><clipPath id="_clipPath_7Smdw1Q91p1rL8Oor8Qd1WakLHDDiV1r"><rect width="50" height="50"/></clipPath></defs><g clip-path="url(#_clipPath_7Smdw1Q91p1rL8Oor8Qd1WakLHDDiV1r)"><path d=" M 5 40 L 5 7 L 9 7 L 9 40 L 45 40 L 5 40 Z " fill="rgb(61,80,89)"/><path d=" M 41 27 L 41 40 L 80 40 L 44.9 40 L 44.9 27 L 41 27 L 41 27 Z " fill="rgb(61,80,89)"/><path d=" M 40.834 40 C 43.449 36.545 45 32.206 45 27.5 C 45 16.186 36.038 7 25 7 C 13.962 7 5 16.186 5 27.5 C 5 32.206 6.551 36.545 9.166 40 L 40.834 40 L 40.834 40 Z " fill="rgb(61,80,89)"/><path d=" M 12.189 18.312 C 10.176 21.302 9 25.036 9 29.077 C 9 33.227 10.241 37.053 12.333 40.1 L 37.667 40.1 L 37.667 40.1 C 39.759 37.053 41 33.227 41 29.077 C 41 19.1 33.831 11 25 11 C 19.747 11 15.081 13.867 12.189 18.312" fill="rgb(255,255,255)"/><path d=" M 13 25 L 37 25 L 37 29 L 13 29 L 13 25 L 13 25 Z " fill="rgb(108,132,149)"/><path d="M 36.245 24 L 36.755 24 C 36.89 24 37 24.11 37 24.245 L 37 29.755 C 37 29.89 36.89 30 36.755 30 L 36.245 30 C 36.11 30 36 29.89 36 29.755 L 36 24.245 C 36 24.11 36.11 24 36.245 24 Z" style="stroke:none;fill:#6C8495;stroke-miterlimit:10;"/><path d="M 13.245 24 L 13.755 24 C 13.89 24 14 24.11 14 24.245 L 14 29.755 C 14 29.89 13.89 30 13.755 30 L 13.245 30 C 13.11 30 13 29.89 13 29.755 L 13 24.245 C 13 24.11 13.11 24 13.245 24 Z" style="stroke:none;fill:#6C8495;stroke-miterlimit:10;"/><polygon points="22.493,39.974,17.413,40,19.933,34.9" fill="rgb(132,166,181)"/><polygon points="27.573,39.974,22.493,40,25.013,34.9" fill="rgb(132,166,181)"/><polygon points="32.653,39.974,27.573,40,30.093,34.9" fill="rgb(132,166,181)"/><polygon points="37.733,39.974,32.653,40,35.173,34.9" fill="rgb(132,166,181)"/><polygon points="17.413,39.974,12.333,40,14.853,34.9" fill="rgb(132,166,181)"/></g></svg>