<?xml version="1.0" encoding="UTF-8" standalone="no"?><!-- Generator: Gravit.io --><svg xmlns="http://www.w3.org/2000/svg" xmlns:xlink="http://www.w3.org/1999/xlink" style="isolation:isolate" viewBox="0 0 50 50" width="50pt" height="50pt"><defs><clipPath id="_clipPath_D7raAj6YmatpztPaNFwSxGR1nHFVxilG"><rect width="50" height="50"/></clipPath></defs><g clip-path="url(#_clipPath_D7raAj6YmatpztPaNFwSxGR1nHFVxilG)"><linearGradient id="_lgradient_2" x1="0.4218457103976169" y1="0.14493921623599615" x2="0.9222258063999262" y2="1.0259324554244045" gradientTransform="matrix(36.5,0,0,31.354,13.5,18.646)" gradientUnits="userSpaceOnUse"><stop offset="1.25%" stop-opacity="1" style="stop-color:rgb(255,255,255)"/><stop offset="100%" stop-opacity="1" style="stop-color:rgb(7,56,68)"/></linearGradient><path d=" M 44.8 18.646 C 48.019 21.976 50 26.508 50 31.5 C 50 41.711 41.71 50 31.5 50 C 22.764 50 15.435 43.932 13.5 35.785" fill="url(#_lgradient_2)"/><linearGradient id="_lgradient_3" x1="0.5135585339656004" y1="-0.03769081025411003" x2="0.5383795879187705" y2="1.3879794492708966" gradientTransform="matrix(31.401,-17.603,4.89,8.723,11.246,32.264)" gradientUnits="userSpaceOnUse"><stop offset="0%" stop-opacity="1" style="stop-color:rgb(255,255,255)"/><stop offset="100%" stop-opacity="1" style="stop-color:rgb(19,52,70)"/></linearGradient><path d=" M 13.691 36.625 C 12.341 34.218 18.281 28.32 26.946 23.462 C 35.612 18.605 43.742 16.615 45.092 19.022 C 46.441 21.429 40.502 27.328 31.836 32.185 C 23.171 37.043 15.04 39.033 13.691 36.625 Z " fill="url(#_lgradient_3)"/><polygon points="1.329,1,16,10.461,8.15,12.219" fill="rgb(10,63,87)"/><polygon points="18.533,23.424,24,33,16.043,32.554" fill="rgb(48,85,82)"/><polygon points="32.733,24,33,30.518,28.891,28.105" fill="rgb(255,255,255)"/><polygon points="30.437,8,31.75,17.154,22.126,13.331" fill="rgb(106,106,106)"/><polygon points="16.617,15.437,21,18.22,9.227,21.856" fill="rgb(179,179,179)"/></g></svg>