<?xml version="1.0" encoding="UTF-8" standalone="no"?><!-- Generator: Gravit.io --><svg xmlns="http://www.w3.org/2000/svg" xmlns:xlink="http://www.w3.org/1999/xlink" style="isolation:isolate" viewBox="0 0 50 50" width="50pt" height="50pt"><defs><clipPath id="_clipPath_ym8Fbpju2Tn8i0P8ok6uf4Iq6inyv0V1"><rect width="50" height="50"/></clipPath></defs><g clip-path="url(#_clipPath_ym8Fbpju2Tn8i0P8ok6uf4Iq6inyv0V1)"><path d=" M 13.448 37.411 C 10.086 34.336 8 29.909 8 25 C 8 15.617 15.617 8 25 8 C 34.342 8 41.934 15.552 41.996 24.88 L 13.448 37.411 L 13.448 37.411 Z " fill="rgb(206,145,145)"/><path d=" M 13.448 37.411 C 16.455 40.269 20.527 42 25 42 C 34.383 42 42 34.383 42 25 C 42 24.96 42 24.919 41.996 24.88 L 13.448 37.411 L 13.448 37.411 Z " fill="rgb(155,112,112)"/><rect x="5.203" y="30.372" width="45" height="1.312" transform="matrix(0.908,-0.419,0.419,0.908,-10.455,14.471)" fill="rgb(255,255,255)"/></g></svg>